# xmcd
#
# Track frame offsets:
#	150
#	29643
#	65403
#	82085
#	119861
#	151879
#	170384
#	192324
#	236011
#	269438
#	295557
#	322998
#
# Disc length: 4481 seconds
#
# Revision: 1
# Processed by: cddbd v1.5.2PL0 Copyright (c) Steve Scherf et al.
# Submitted via: EasyCDDAExtractor 15.2.5.1
#
DISCID=ad117f0c
DTITLE=HOUSE 2004 cd 2
DYEAR=2004
DGENRE=House
TTITLE0=PARIS LATINO   - FLEXY (Remix)
TTITLE1=SOUL PLAYAZ - FEEL (Junk and Function CLub Mix) 
TTITLE2=IMHOFF feat TYLENE - SUCH A GOOD FEELING
TTITLE3=ROBBIE RIVERA pres BREAK 42 - Gonna Let The Music Move You Around (JJ
TTITLE3='s Mix Vocal) 
TTITLE4=ELECTO BLUES - FEELING (Harlem Hustlers Club Remix)
TTITLE5=ALEXX - LAST NIGHT A DJ SAVED MY LIFE (Radio Version)
TTITLE6=SOUL SISTAS - I'M WATCHING YOU (Piraz Dommu MIX) 
TTITLE7=WILLIAM ROSARIO feat SOLYMAR - CLOSER (Pacha Dance Mix) 
TTITLE8=EBAR - ONE TRACK MIND (Stephen M. And Marc Vane Remix)
TTITLE9=THE BITCH HOTEL - DO U WANNA DANCE (Gambafreaks Alternative Mix)
TTITLE10=INSOLITO - MOUSETRIP (Alternative Mix)
TTITLE11=WENDY PHILLIPS - WHATEVER IT TAKES (Radio Edit) 
EXTD=
EXTT0=
EXTT1=
EXTT2=
EXTT3=
EXTT4=
EXTT5=
EXTT6=
EXTT7=
EXTT8=
EXTT9=
EXTT10=
EXTT11=
PLAYORDER=
